<mxfile host="Electron" modified="2023-04-16T16:11:11.620Z" agent="Mozilla/5.0 (Windows NT 10.0; Win64; x64) AppleWebKit/537.36 (KHTML, like Gecko) draw.io/21.1.2 Chrome/106.0.5249.199 Electron/21.4.3 Safari/537.36" etag="mDI9I3OwiNtfFDfiDvP-" version="21.1.2" type="device">
  <diagram name="Página-1" id="eYYsEfSTQkJZtCJ8P7Vc">
    <mxGraphModel dx="1578" dy="442" grid="1" gridSize="10" guides="1" tooltips="1" connect="1" arrows="1" fold="1" page="1" pageScale="1" pageWidth="827" pageHeight="1169" math="0" shadow="0">
      <root>
        <mxCell id="0" />
        <mxCell id="1" parent="0" />
        <mxCell id="caAI1zu-54LZmz0PbXrQ-1" value="&lt;font style=&quot;font-size: 34px;&quot;&gt;0&lt;/font&gt;" style="ellipse;whiteSpace=wrap;html=1;aspect=fixed;" parent="1" vertex="1">
          <mxGeometry x="-160" y="920" width="80" height="80" as="geometry" />
        </mxCell>
        <mxCell id="caAI1zu-54LZmz0PbXrQ-2" value="1" style="ellipse;whiteSpace=wrap;html=1;aspect=fixed;fontSize=34;strokeWidth=3;" parent="1" vertex="1">
          <mxGeometry x="-280" y="1120" width="80" height="80" as="geometry" />
        </mxCell>
        <mxCell id="caAI1zu-54LZmz0PbXrQ-3" value="2" style="ellipse;whiteSpace=wrap;html=1;aspect=fixed;fontSize=34;" parent="1" vertex="1">
          <mxGeometry x="-40" y="1120" width="80" height="80" as="geometry" />
        </mxCell>
        <mxCell id="caAI1zu-54LZmz0PbXrQ-11" value="" style="endArrow=classic;html=1;rounded=0;entryX=0.5;entryY=0;entryDx=0;entryDy=0;exitX=0;exitY=1;exitDx=0;exitDy=0;fontSize=34;" parent="1" source="caAI1zu-54LZmz0PbXrQ-1" target="caAI1zu-54LZmz0PbXrQ-2" edge="1">
          <mxGeometry width="50" height="50" relative="1" as="geometry">
            <mxPoint x="242.5" y="1620" as="sourcePoint" />
            <mxPoint x="292.5" y="1570" as="targetPoint" />
          </mxGeometry>
        </mxCell>
        <mxCell id="caAI1zu-54LZmz0PbXrQ-12" value="" style="endArrow=classic;html=1;rounded=0;exitX=1;exitY=1;exitDx=0;exitDy=0;fontSize=34;entryX=0.5;entryY=0;entryDx=0;entryDy=0;" parent="1" source="caAI1zu-54LZmz0PbXrQ-1" target="caAI1zu-54LZmz0PbXrQ-3" edge="1">
          <mxGeometry width="50" height="50" relative="1" as="geometry">
            <mxPoint x="12.5" y="1160" as="sourcePoint" />
            <mxPoint x="-267.5" y="1310" as="targetPoint" />
          </mxGeometry>
        </mxCell>
        <mxCell id="caAI1zu-54LZmz0PbXrQ-25" value="&lt;div style=&quot;background-color: rgb(47, 47, 47); padding: 0px 0px 0px 2px; font-size: 14px;&quot;&gt;&lt;div style=&quot;color: rgb(170, 170, 170); font-family: &amp;quot;Courier New&amp;quot;; font-size: 14px;&quot;&gt;&lt;p style=&quot;background-color: rgb(55, 55, 55); margin: 0px; font-size: 14px;&quot;&gt;&lt;span style=&quot;color: rgb(121, 171, 255); font-size: 14px;&quot;&gt;query&lt;/span&gt;&lt;span style=&quot;color: rgb(217, 232, 247); font-size: 14px;&quot;&gt; &lt;/span&gt;&lt;span style=&quot;color: rgb(230, 230, 250); font-size: 14px;&quot;&gt;==&lt;/span&gt;&lt;span style=&quot;color: rgb(217, 232, 247); font-size: 14px;&quot;&gt; &lt;/span&gt;&lt;span style=&quot;color: rgb(204, 108, 29); font-size: 14px;&quot;&gt;null&lt;/span&gt;&lt;/p&gt;&lt;/div&gt;&lt;/div&gt;" style="text;html=1;align=center;verticalAlign=middle;resizable=0;points=[];autosize=1;strokeColor=none;fillColor=none;fontSize=14;fontColor=#990099;fontStyle=1;rotation=-45;" parent="1" vertex="1">
          <mxGeometry x="-285.5" y="1033" width="130" height="30" as="geometry" />
        </mxCell>
        <mxCell id="caAI1zu-54LZmz0PbXrQ-34" value="&lt;div style=&quot;background-color: rgb(47, 47, 47); padding: 0px 0px 0px 2px; font-size: 13px;&quot;&gt;&lt;div style=&quot;font-family: &amp;quot;Courier New&amp;quot;; font-size: 13px;&quot;&gt;&lt;p style=&quot;background-color: rgb(55, 55, 55); margin: 0px; font-size: 13px;&quot;&gt;&lt;font color=&quot;#ffffff&quot;&gt;¬(&lt;/font&gt;&lt;span style=&quot;color: rgb(243, 236, 121); font-size: 13px;&quot;&gt;x&lt;/span&gt;&lt;span style=&quot;color: rgb(217, 232, 247); font-size: 13px;&quot;&gt; &lt;/span&gt;&lt;span style=&quot;color: rgb(230, 230, 250); font-size: 13px;&quot;&gt;!=&lt;/span&gt;&lt;span style=&quot;color: rgb(217, 232, 247); font-size: 13px;&quot;&gt; &lt;/span&gt;&lt;span style=&quot;color: rgb(204, 108, 29); font-size: 13px;&quot;&gt;null&lt;/span&gt;&lt;span style=&quot;color: rgb(217, 232, 247); font-size: 13px;&quot;&gt; &lt;/span&gt;&lt;span style=&quot;color: rgb(230, 230, 250); font-size: 13px;&quot;&gt;&amp;amp;&amp;amp;&lt;/span&gt;&lt;span style=&quot;color: rgb(217, 232, 247); font-size: 13px;&quot;&gt;&amp;nbsp;&lt;/span&gt;&lt;/p&gt;&lt;p style=&quot;color: rgb(170, 170, 170); background-color: rgb(55, 55, 55); margin: 0px; font-size: 13px;&quot;&gt;&lt;span style=&quot;color: rgb(243, 236, 121); font-size: 13px;&quot;&gt;i&lt;/span&gt;&lt;span style=&quot;color: rgb(217, 232, 247); font-size: 13px;&quot;&gt; &lt;/span&gt;&lt;span style=&quot;color: rgb(230, 230, 250); font-size: 13px;&quot;&gt;&amp;lt;&lt;/span&gt;&lt;span style=&quot;color: rgb(217, 232, 247); font-size: 13px;&quot;&gt; &lt;/span&gt;&lt;span style=&quot;color: rgb(121, 171, 255); font-size: 13px;&quot;&gt;query&lt;/span&gt;&lt;span style=&quot;color: rgb(230, 230, 250); font-size: 13px;&quot;&gt;.&lt;/span&gt;&lt;span style=&quot;color: rgb(167, 236, 33); font-size: 13px;&quot;&gt;length&lt;/span&gt;&lt;span style=&quot;color: rgb(249, 250, 244); font-size: 13px;&quot;&gt;())&lt;/span&gt;&lt;/p&gt;&lt;/div&gt;&lt;/div&gt;" style="text;html=1;align=center;verticalAlign=middle;resizable=0;points=[];autosize=1;strokeColor=none;fillColor=none;fontSize=13;fontColor=#990099;fontStyle=1;rotation=30;" parent="1" vertex="1">
          <mxGeometry x="188" y="1578" width="170" height="40" as="geometry" />
        </mxCell>
        <mxCell id="caAI1zu-54LZmz0PbXrQ-43" value="&lt;div style=&quot;background-color: rgb(47, 47, 47); padding: 0px 0px 0px 2px; font-size: 14px;&quot;&gt;&lt;div style=&quot;font-family: &amp;quot;Courier New&amp;quot;; font-size: 14px;&quot;&gt;&lt;p style=&quot;background-color: rgb(55, 55, 55); margin: 0px; font-size: 14px;&quot;&gt;&lt;font color=&quot;#ffffff&quot; style=&quot;font-size: 14px;&quot;&gt;¬(&lt;/font&gt;&lt;span style=&quot;color: rgb(121, 171, 255); font-size: 14px;&quot;&gt;query&lt;/span&gt;&lt;span style=&quot;color: rgb(217, 232, 247); font-size: 14px;&quot;&gt; &lt;/span&gt;&lt;span style=&quot;color: rgb(230, 230, 250); font-size: 14px;&quot;&gt;==&lt;/span&gt;&lt;span style=&quot;color: rgb(217, 232, 247); font-size: 14px;&quot;&gt; &lt;/span&gt;&lt;span style=&quot;color: rgb(204, 108, 29); font-size: 14px;&quot;&gt;null&lt;/span&gt;&lt;font color=&quot;#ffffff&quot; style=&quot;font-size: 14px;&quot;&gt;)&lt;/font&gt;&lt;/p&gt;&lt;/div&gt;&lt;/div&gt;" style="text;html=1;align=center;verticalAlign=middle;resizable=0;points=[];autosize=1;strokeColor=none;fillColor=none;fontSize=14;fontColor=#990099;fontStyle=1;rotation=45;" parent="1" vertex="1">
          <mxGeometry x="-102.5" y="1031" width="160" height="30" as="geometry" />
        </mxCell>
        <mxCell id="caAI1zu-54LZmz0PbXrQ-45" value="" style="endArrow=classic;html=1;rounded=0;fontSize=34;entryX=0.5;entryY=0;entryDx=0;entryDy=0;" parent="1" target="caAI1zu-54LZmz0PbXrQ-1" edge="1">
          <mxGeometry width="50" height="50" relative="1" as="geometry">
            <mxPoint x="-120" y="830" as="sourcePoint" />
            <mxPoint x="-111" y="883" as="targetPoint" />
          </mxGeometry>
        </mxCell>
        <mxCell id="caAI1zu-54LZmz0PbXrQ-48" value="3" style="ellipse;whiteSpace=wrap;html=1;aspect=fixed;fontSize=34;strokeWidth=3;" parent="1" vertex="1">
          <mxGeometry x="-160" y="1320" width="80" height="80" as="geometry" />
        </mxCell>
        <mxCell id="caAI1zu-54LZmz0PbXrQ-49" value="5" style="ellipse;whiteSpace=wrap;html=1;aspect=fixed;fontSize=34;" parent="1" vertex="1">
          <mxGeometry x="80" y="1468" width="80" height="80" as="geometry" />
        </mxCell>
        <mxCell id="caAI1zu-54LZmz0PbXrQ-50" value="" style="endArrow=classic;html=1;rounded=0;entryX=0.5;entryY=0;entryDx=0;entryDy=0;exitX=0;exitY=1;exitDx=0;exitDy=0;fontSize=34;" parent="1" source="caAI1zu-54LZmz0PbXrQ-3" target="caAI1zu-54LZmz0PbXrQ-48" edge="1">
          <mxGeometry width="50" height="50" relative="1" as="geometry">
            <mxPoint x="-22.500000000006594" y="1335" as="sourcePoint" />
            <mxPoint x="442.5" y="1925" as="targetPoint" />
          </mxGeometry>
        </mxCell>
        <mxCell id="caAI1zu-54LZmz0PbXrQ-51" value="" style="endArrow=classic;html=1;rounded=0;exitX=1;exitY=1;exitDx=0;exitDy=0;fontSize=34;entryX=0.5;entryY=0;entryDx=0;entryDy=0;" parent="1" source="caAI1zu-54LZmz0PbXrQ-3" edge="1" target="8Czv-CQ8JKGNoGWyx-Vr-1">
          <mxGeometry width="50" height="50" relative="1" as="geometry">
            <mxPoint x="57.50000000000637" y="1335" as="sourcePoint" />
            <mxPoint x="60" y="1300" as="targetPoint" />
          </mxGeometry>
        </mxCell>
        <mxCell id="caAI1zu-54LZmz0PbXrQ-54" value="&lt;div style=&quot;background-color: rgb(47, 47, 47); padding: 0px 0px 0px 2px; font-size: 13px;&quot;&gt;&lt;div style=&quot;color: rgb(170, 170, 170); font-family: &amp;quot;Courier New&amp;quot;; font-size: 13px;&quot;&gt;&lt;div style=&quot;padding: 0px 0px 0px 2px; font-size: 13px;&quot;&gt;&lt;div style=&quot;font-size: 13px;&quot;&gt;&lt;p style=&quot;background-color: rgb(55, 55, 55); margin: 0px; font-size: 13px;&quot;&gt;&lt;span style=&quot;color: rgb(121, 171, 255); font-size: 13px;&quot;&gt;query&lt;/span&gt;&lt;span style=&quot;color: rgb(230, 230, 250); font-size: 13px;&quot;&gt;.&lt;/span&gt;&lt;span style=&quot;color: rgb(167, 236, 33); font-size: 13px;&quot;&gt;length&lt;/span&gt;&lt;span style=&quot;color: rgb(249, 250, 244); font-size: 13px;&quot;&gt;()&lt;/span&gt;&lt;span style=&quot;color: rgb(217, 232, 247); font-size: 13px;&quot;&gt; &lt;/span&gt;&lt;span style=&quot;color: rgb(230, 230, 250); font-size: 13px;&quot;&gt;==&lt;/span&gt;&lt;span style=&quot;color: rgb(217, 232, 247); font-size: 13px;&quot;&gt; &lt;/span&gt;&lt;span style=&quot;color: rgb(104, 151, 187); font-size: 13px;&quot;&gt;0&lt;/span&gt;&lt;/p&gt;&lt;/div&gt;&lt;/div&gt;&lt;/div&gt;&lt;/div&gt;" style="text;html=1;align=center;verticalAlign=middle;resizable=0;points=[];autosize=1;strokeColor=none;fillColor=none;fontSize=13;fontColor=#990099;fontStyle=1;rotation=-30;" parent="1" vertex="1">
          <mxGeometry x="-195" y="1232" width="180" height="30" as="geometry" />
        </mxCell>
        <mxCell id="caAI1zu-54LZmz0PbXrQ-56" value="&lt;div style=&quot;background-color: rgb(47, 47, 47); padding: 0px 0px 0px 2px; font-size: 13px;&quot;&gt;&lt;div style=&quot;font-family: &amp;quot;Courier New&amp;quot;; font-size: 13px;&quot;&gt;&lt;div style=&quot;padding: 0px 0px 0px 2px; font-size: 13px;&quot;&gt;&lt;div style=&quot;font-size: 13px;&quot;&gt;&lt;p style=&quot;background-color: rgb(55, 55, 55); margin: 0px; font-size: 13px;&quot;&gt;&lt;font color=&quot;#ffffff&quot;&gt;¬(&lt;/font&gt;&lt;span style=&quot;color: rgb(121, 171, 255); font-size: 13px;&quot;&gt;query&lt;/span&gt;&lt;span style=&quot;color: rgb(230, 230, 250); font-size: 13px;&quot;&gt;.&lt;/span&gt;&lt;span style=&quot;color: rgb(167, 236, 33); font-size: 13px;&quot;&gt;length&lt;/span&gt;&lt;span style=&quot;color: rgb(249, 250, 244); font-size: 13px;&quot;&gt;()&lt;/span&gt;&lt;span style=&quot;color: rgb(217, 232, 247); font-size: 13px;&quot;&gt; &lt;/span&gt;&lt;span style=&quot;color: rgb(230, 230, 250); font-size: 13px;&quot;&gt;==&lt;/span&gt;&lt;span style=&quot;color: rgb(217, 232, 247); font-size: 13px;&quot;&gt; &lt;/span&gt;&lt;span style=&quot;color: rgb(104, 151, 187); font-size: 13px;&quot;&gt;0&lt;/span&gt;&lt;span style=&quot;font-size: 13px;&quot;&gt;&lt;font color=&quot;#ffffff&quot;&gt;)&lt;/font&gt;&lt;/span&gt;&lt;/p&gt;&lt;/div&gt;&lt;/div&gt;&lt;/div&gt;&lt;/div&gt;" style="text;html=1;align=center;verticalAlign=middle;resizable=0;points=[];autosize=1;strokeColor=none;fillColor=none;fontSize=13;fontColor=#990099;fontStyle=1;rotation=30;" parent="1" vertex="1">
          <mxGeometry x="10" y="1232" width="200" height="30" as="geometry" />
        </mxCell>
        <mxCell id="caAI1zu-54LZmz0PbXrQ-24" value="&lt;div style=&quot;background-color: rgb(47, 47, 47); padding: 0px 0px 0px 2px; font-size: 14px;&quot;&gt;&lt;div style=&quot;font-family: &amp;quot;Courier New&amp;quot;; font-size: 14px;&quot;&gt;&lt;p style=&quot;background-color: rgb(55, 55, 55); margin: 0px; font-size: 14px;&quot;&gt;&lt;span style=&quot;color: rgb(204, 108, 29); font-size: 14px;&quot;&gt;throw new &lt;/span&gt;&lt;font color=&quot;#a7ec21&quot; style=&quot;font-size: 14px;&quot;&gt;IAE&lt;/font&gt;&lt;/p&gt;&lt;/div&gt;&lt;/div&gt;" style="text;html=1;align=center;verticalAlign=middle;resizable=0;points=[];autosize=1;strokeColor=none;fillColor=none;fontSize=14;fontStyle=1" parent="1" vertex="1">
          <mxGeometry x="-390" y="1145" width="130" height="30" as="geometry" />
        </mxCell>
        <mxCell id="caAI1zu-54LZmz0PbXrQ-59" value="6" style="ellipse;whiteSpace=wrap;html=1;aspect=fixed;fontSize=34;strokeWidth=1;" parent="1" vertex="1">
          <mxGeometry x="-40" y="1668" width="80" height="80" as="geometry" />
        </mxCell>
        <mxCell id="caAI1zu-54LZmz0PbXrQ-60" value="13" style="ellipse;whiteSpace=wrap;html=1;aspect=fixed;fontSize=34;strokeWidth=3;" parent="1" vertex="1">
          <mxGeometry x="292" y="1668" width="80" height="80" as="geometry" />
        </mxCell>
        <mxCell id="caAI1zu-54LZmz0PbXrQ-61" value="" style="endArrow=classic;html=1;rounded=0;entryX=0.5;entryY=0;entryDx=0;entryDy=0;fontSize=34;exitX=0;exitY=1;exitDx=0;exitDy=0;" parent="1" source="caAI1zu-54LZmz0PbXrQ-49" target="caAI1zu-54LZmz0PbXrQ-59" edge="1">
          <mxGeometry width="50" height="50" relative="1" as="geometry">
            <mxPoint x="70" y="1528" as="sourcePoint" />
            <mxPoint x="562.5" y="2273" as="targetPoint" />
          </mxGeometry>
        </mxCell>
        <mxCell id="caAI1zu-54LZmz0PbXrQ-62" value="" style="endArrow=classic;html=1;rounded=0;fontSize=34;entryX=0.5;entryY=0;entryDx=0;entryDy=0;exitX=1;exitY=1;exitDx=0;exitDy=0;" parent="1" source="caAI1zu-54LZmz0PbXrQ-49" target="caAI1zu-54LZmz0PbXrQ-60" edge="1">
          <mxGeometry width="50" height="50" relative="1" as="geometry">
            <mxPoint x="148" y="1568" as="sourcePoint" />
            <mxPoint x="2.5" y="2013" as="targetPoint" />
          </mxGeometry>
        </mxCell>
        <mxCell id="caAI1zu-54LZmz0PbXrQ-42" value="&lt;div style=&quot;background-color: rgb(47, 47, 47); padding: 0px 0px 0px 2px; font-size: 14px;&quot;&gt;&lt;div style=&quot;color: rgb(170, 170, 170); background-color: rgb(47, 47, 47); font-family: &amp;quot;Courier New&amp;quot;; font-size: 14px;&quot;&gt;&lt;p style=&quot;margin: 0px; font-size: 14px;&quot;&gt;&lt;span style=&quot;font-size: 14px; color: rgb(204, 108, 29);&quot;&gt;return&lt;/span&gt;&lt;span style=&quot;font-size: 14px; color: rgb(217, 232, 247);&quot;&gt; &lt;/span&gt;&lt;span style=&quot;font-size: 14px; color: rgb(121, 171, 255);&quot;&gt;query&lt;/span&gt;&lt;span style=&quot;font-size: 14px; color: rgb(230, 230, 250);&quot;&gt;.&lt;/span&gt;&lt;span style=&quot;font-size: 14px; color: rgb(167, 236, 33);&quot;&gt;substring&lt;/span&gt;&lt;span style=&quot;font-size: 14px; color: rgb(249, 250, 244);&quot;&gt;(&lt;/span&gt;&lt;span style=&quot;font-size: 14px; color: rgb(104, 151, 187);&quot;&gt;0&lt;/span&gt;&lt;span style=&quot;font-size: 14px; color: rgb(230, 230, 250);&quot;&gt;,&lt;/span&gt;&lt;span style=&quot;font-size: 14px; color: rgb(217, 232, 247);&quot;&gt; &lt;/span&gt;&lt;span style=&quot;font-size: 14px; color: rgb(243, 236, 121);&quot;&gt;length&lt;/span&gt;&lt;span style=&quot;font-size: 14px; color: rgb(249, 250, 244);&quot;&gt;)&lt;/span&gt;&lt;span style=&quot;font-size: 14px; color: rgb(230, 230, 250);&quot;&gt;;&lt;/span&gt;&lt;br style=&quot;font-size: 14px;&quot;&gt;&lt;/p&gt;&lt;/div&gt;&lt;/div&gt;" style="text;whiteSpace=wrap;html=1;fontSize=14;fontColor=#000000;" parent="1" vertex="1">
          <mxGeometry x="363" y="1693" width="360" height="30" as="geometry" />
        </mxCell>
        <mxCell id="caAI1zu-54LZmz0PbXrQ-65" value="7" style="ellipse;whiteSpace=wrap;html=1;aspect=fixed;fontSize=34;strokeWidth=1;" parent="1" vertex="1">
          <mxGeometry x="-160" y="1868" width="80" height="80" as="geometry" />
        </mxCell>
        <mxCell id="caAI1zu-54LZmz0PbXrQ-66" value="8" style="ellipse;whiteSpace=wrap;html=1;aspect=fixed;fontSize=34;strokeWidth=1;" parent="1" vertex="1">
          <mxGeometry x="80" y="1868" width="80" height="80" as="geometry" />
        </mxCell>
        <mxCell id="caAI1zu-54LZmz0PbXrQ-67" value="" style="endArrow=classic;html=1;rounded=0;entryX=0.5;entryY=0;entryDx=0;entryDy=0;fontSize=34;exitX=0;exitY=1;exitDx=0;exitDy=0;" parent="1" source="caAI1zu-54LZmz0PbXrQ-59" target="caAI1zu-54LZmz0PbXrQ-65" edge="1">
          <mxGeometry width="50" height="50" relative="1" as="geometry">
            <mxPoint x="-50" y="1728" as="sourcePoint" />
            <mxPoint x="442.5" y="2473" as="targetPoint" />
          </mxGeometry>
        </mxCell>
        <mxCell id="caAI1zu-54LZmz0PbXrQ-68" value="" style="endArrow=classic;html=1;rounded=0;fontSize=34;entryX=0.5;entryY=0;entryDx=0;entryDy=0;exitX=1;exitY=1;exitDx=0;exitDy=0;" parent="1" source="caAI1zu-54LZmz0PbXrQ-59" target="caAI1zu-54LZmz0PbXrQ-66" edge="1">
          <mxGeometry width="50" height="50" relative="1" as="geometry">
            <mxPoint x="90" y="1728" as="sourcePoint" />
            <mxPoint x="-117.5" y="2213" as="targetPoint" />
          </mxGeometry>
        </mxCell>
        <mxCell id="caAI1zu-54LZmz0PbXrQ-69" value="&lt;div style=&quot;background-color: rgb(47, 47, 47); padding: 0px 0px 0px 2px; font-size: 14px;&quot;&gt;&lt;div style=&quot;background-color: rgb(47, 47, 47); font-family: &amp;quot;Courier New&amp;quot;; font-size: 14px;&quot;&gt;&lt;p style=&quot;background-color: rgb(55, 55, 55); margin: 0px; font-size: 14px;&quot;&gt;&lt;span style=&quot;font-size: 14px;&quot;&gt;&lt;/span&gt;&lt;font color=&quot;#ffffff&quot;&gt;¬&lt;/font&gt;&lt;span style=&quot;color: rgb(249, 250, 244); font-size: 14px;&quot;&gt;(&lt;/span&gt;&lt;span style=&quot;color: rgb(243, 236, 121); font-size: 14px;&quot;&gt;c&lt;/span&gt;&lt;span style=&quot;color: rgb(217, 232, 247); font-size: 14px;&quot;&gt; &lt;/span&gt;&lt;span style=&quot;color: rgb(230, 230, 250); font-size: 14px;&quot;&gt;&amp;lt;&lt;/span&gt;&lt;span style=&quot;color: rgb(217, 232, 247); font-size: 14px;&quot;&gt; &lt;/span&gt;&lt;span style=&quot;color: rgb(243, 236, 121); font-size: 14px;&quot;&gt;x&lt;/span&gt;&lt;span style=&quot;color: rgb(230, 230, 250); font-size: 14px;&quot;&gt;.&lt;/span&gt;&lt;span style=&quot;color: rgb(102, 225, 248); font-size: 14px;&quot;&gt;c&lt;/span&gt;&lt;span style=&quot;color: rgb(249, 250, 244); font-size: 14px;&quot;&gt;)&lt;/span&gt;&lt;/p&gt;&lt;/div&gt;&lt;/div&gt;" style="text;whiteSpace=wrap;html=1;fontSize=14;fontColor=#000000;fontStyle=1;rotation=45;" parent="1" vertex="1">
          <mxGeometry x="46" y="1781" width="95" height="31.16" as="geometry" />
        </mxCell>
        <mxCell id="caAI1zu-54LZmz0PbXrQ-71" value="&lt;div style=&quot;background-color: rgb(47, 47, 47); padding: 0px 0px 0px 2px; font-size: 14px;&quot;&gt;&lt;div style=&quot;color: rgb(170, 170, 170); background-color: rgb(47, 47, 47); font-family: &amp;quot;Courier New&amp;quot;; font-size: 14px;&quot;&gt;&lt;p style=&quot;background-color: rgb(55, 55, 55); margin: 0px; font-size: 14px;&quot;&gt;&lt;span style=&quot;color: rgb(217, 232, 247); font-size: 14px;&quot;&gt;&lt;/span&gt;&lt;span style=&quot;color: rgb(249, 250, 244); font-size: 14px;&quot;&gt;(&lt;/span&gt;&lt;span style=&quot;color: rgb(243, 236, 121); font-size: 14px;&quot;&gt;c&lt;/span&gt;&lt;span style=&quot;color: rgb(217, 232, 247); font-size: 14px;&quot;&gt; &lt;/span&gt;&lt;span style=&quot;color: rgb(230, 230, 250); font-size: 14px;&quot;&gt;&amp;lt;&lt;/span&gt;&lt;span style=&quot;color: rgb(217, 232, 247); font-size: 14px;&quot;&gt; &lt;/span&gt;&lt;span style=&quot;color: rgb(243, 236, 121); font-size: 14px;&quot;&gt;x&lt;/span&gt;&lt;span style=&quot;color: rgb(230, 230, 250); font-size: 14px;&quot;&gt;.&lt;/span&gt;&lt;span style=&quot;color: rgb(102, 225, 248); font-size: 14px;&quot;&gt;c&lt;/span&gt;&lt;span style=&quot;color: rgb(249, 250, 244); font-size: 14px;&quot;&gt;)&lt;/span&gt;&lt;/p&gt;&lt;/div&gt;&lt;/div&gt;" style="text;whiteSpace=wrap;html=1;fontSize=14;fontColor=#000000;fontStyle=1;rotation=-45;" parent="1" vertex="1">
          <mxGeometry x="-134.47" y="1776.13" width="95" height="31.16" as="geometry" />
        </mxCell>
        <mxCell id="caAI1zu-54LZmz0PbXrQ-72" value="" style="curved=1;endArrow=classic;html=1;rounded=0;entryX=0;entryY=0.5;entryDx=0;entryDy=0;exitX=0;exitY=0;exitDx=0;exitDy=0;" parent="1" source="caAI1zu-54LZmz0PbXrQ-65" target="caAI1zu-54LZmz0PbXrQ-49" edge="1">
          <mxGeometry width="50" height="50" relative="1" as="geometry">
            <mxPoint x="-210" y="1798" as="sourcePoint" />
            <mxPoint x="-160" y="1748" as="targetPoint" />
            <Array as="points">
              <mxPoint x="-290" y="1528" />
            </Array>
          </mxGeometry>
        </mxCell>
        <mxCell id="caAI1zu-54LZmz0PbXrQ-75" value="9" style="ellipse;whiteSpace=wrap;html=1;aspect=fixed;fontSize=34;strokeWidth=1;" parent="1" vertex="1">
          <mxGeometry x="-40" y="2068" width="80" height="80" as="geometry" />
        </mxCell>
        <mxCell id="caAI1zu-54LZmz0PbXrQ-76" value="7" style="ellipse;whiteSpace=wrap;html=1;aspect=fixed;fontSize=34;strokeWidth=1;" parent="1" vertex="1">
          <mxGeometry x="200" y="2068" width="80" height="80" as="geometry" />
        </mxCell>
        <mxCell id="caAI1zu-54LZmz0PbXrQ-77" value="" style="endArrow=classic;html=1;rounded=0;entryX=0.5;entryY=0;entryDx=0;entryDy=0;fontSize=34;exitX=0;exitY=1;exitDx=0;exitDy=0;" parent="1" target="caAI1zu-54LZmz0PbXrQ-75" edge="1">
          <mxGeometry width="50" height="50" relative="1" as="geometry">
            <mxPoint x="91.71572875253787" y="1936.2842712474621" as="sourcePoint" />
            <mxPoint x="562.5" y="2673" as="targetPoint" />
          </mxGeometry>
        </mxCell>
        <mxCell id="caAI1zu-54LZmz0PbXrQ-78" value="" style="endArrow=classic;html=1;rounded=0;fontSize=34;entryX=0.5;entryY=0;entryDx=0;entryDy=0;exitX=1;exitY=1;exitDx=0;exitDy=0;" parent="1" target="caAI1zu-54LZmz0PbXrQ-76" edge="1">
          <mxGeometry width="50" height="50" relative="1" as="geometry">
            <mxPoint x="148.28427124746167" y="1936.2842712474621" as="sourcePoint" />
            <mxPoint x="2.5" y="2413" as="targetPoint" />
          </mxGeometry>
        </mxCell>
        <mxCell id="caAI1zu-54LZmz0PbXrQ-79" value="&lt;div style=&quot;background-color: rgb(47, 47, 47); padding: 0px 0px 0px 2px; font-size: 14px;&quot;&gt;&lt;div style=&quot;background-color: rgb(47, 47, 47); font-family: &amp;quot;Courier New&amp;quot;; font-size: 14px;&quot;&gt;&lt;p style=&quot;background-color: rgb(55, 55, 55); margin: 0px; font-size: 14px;&quot;&gt;&lt;span style=&quot;font-size: 14px;&quot;&gt;&lt;/span&gt;&lt;font color=&quot;#ffffff&quot;&gt;¬&lt;/font&gt;&lt;span style=&quot;color: rgb(249, 250, 244); font-size: 14px;&quot;&gt;(&lt;/span&gt;&lt;span style=&quot;color: rgb(243, 236, 121); font-size: 14px;&quot;&gt;c&lt;/span&gt;&lt;span style=&quot;color: rgb(217, 232, 247); font-size: 14px;&quot;&gt;&amp;nbsp;&lt;/span&gt;&lt;span style=&quot;font-size: 14px;&quot;&gt;&lt;font color=&quot;#e6e6fa&quot;&gt;&amp;gt;&lt;/font&gt;&lt;/span&gt;&lt;span style=&quot;color: rgb(217, 232, 247); font-size: 14px;&quot;&gt;&amp;nbsp;&lt;/span&gt;&lt;span style=&quot;color: rgb(243, 236, 121); font-size: 14px;&quot;&gt;x&lt;/span&gt;&lt;span style=&quot;color: rgb(230, 230, 250); font-size: 14px;&quot;&gt;.&lt;/span&gt;&lt;span style=&quot;color: rgb(102, 225, 248); font-size: 14px;&quot;&gt;c&lt;/span&gt;&lt;span style=&quot;color: rgb(249, 250, 244); font-size: 14px;&quot;&gt;)&lt;/span&gt;&lt;/p&gt;&lt;/div&gt;&lt;/div&gt;" style="text;whiteSpace=wrap;html=1;fontSize=14;fontColor=#000000;fontStyle=1;rotation=45;" parent="1" vertex="1">
          <mxGeometry x="166" y="1981" width="95" height="31.16" as="geometry" />
        </mxCell>
        <mxCell id="caAI1zu-54LZmz0PbXrQ-80" value="&lt;div style=&quot;background-color: rgb(47, 47, 47); padding: 0px 0px 0px 2px; font-size: 14px;&quot;&gt;&lt;div style=&quot;background-color: rgb(47, 47, 47); font-family: &amp;quot;Courier New&amp;quot;; font-size: 14px;&quot;&gt;&lt;p style=&quot;background-color: rgb(55, 55, 55); margin: 0px; font-size: 14px;&quot;&gt;&lt;span style=&quot;color: rgb(217, 232, 247); font-size: 14px;&quot;&gt;&lt;/span&gt;&lt;span style=&quot;color: rgb(249, 250, 244); font-size: 14px;&quot;&gt;(&lt;/span&gt;&lt;span style=&quot;color: rgb(243, 236, 121); font-size: 14px;&quot;&gt;c&lt;/span&gt;&lt;span style=&quot;color: rgb(217, 232, 247); font-size: 14px;&quot;&gt;&amp;nbsp;&lt;/span&gt;&lt;span style=&quot;font-size: 14px;&quot;&gt;&lt;font color=&quot;#e6e6fa&quot;&gt;&amp;gt;&lt;/font&gt;&lt;/span&gt;&lt;span style=&quot;color: rgb(217, 232, 247); font-size: 14px;&quot;&gt;&amp;nbsp;&lt;/span&gt;&lt;span style=&quot;color: rgb(243, 236, 121); font-size: 14px;&quot;&gt;x&lt;/span&gt;&lt;span style=&quot;color: rgb(230, 230, 250); font-size: 14px;&quot;&gt;.&lt;/span&gt;&lt;span style=&quot;color: rgb(102, 225, 248); font-size: 14px;&quot;&gt;c&lt;/span&gt;&lt;span style=&quot;color: rgb(249, 250, 244); font-size: 14px;&quot;&gt;)&lt;/span&gt;&lt;/p&gt;&lt;/div&gt;&lt;/div&gt;" style="text;whiteSpace=wrap;html=1;fontSize=14;fontColor=#000000;fontStyle=1;rotation=-45;" parent="1" vertex="1">
          <mxGeometry x="-14.469999999999999" y="1976.13" width="95" height="31.16" as="geometry" />
        </mxCell>
        <mxCell id="caAI1zu-54LZmz0PbXrQ-81" value="" style="curved=1;endArrow=classic;html=1;rounded=0;exitX=0;exitY=0.5;exitDx=0;exitDy=0;" parent="1" source="caAI1zu-54LZmz0PbXrQ-75" edge="1">
          <mxGeometry width="50" height="50" relative="1" as="geometry">
            <mxPoint x="-90" y="1998" as="sourcePoint" />
            <mxPoint x="80" y="1498" as="targetPoint" />
            <Array as="points">
              <mxPoint x="-230" y="2058" />
              <mxPoint x="-250" y="1498" />
            </Array>
          </mxGeometry>
        </mxCell>
        <mxCell id="caAI1zu-54LZmz0PbXrQ-36" value="&lt;div style=&quot;background-color: rgb(47, 47, 47); padding: 0px 0px 0px 2px; font-size: 14px;&quot;&gt;&lt;div style=&quot;color: rgb(170, 170, 170); background-color: rgb(47, 47, 47); font-family: &amp;quot;Courier New&amp;quot;; font-size: 14px;&quot;&gt;&lt;p style=&quot;background-color: rgb(55, 55, 55); margin: 0px; font-size: 14px;&quot;&gt;&lt;span style=&quot;color: rgb(217, 232, 247); font-size: 14px;&quot;&gt;&lt;/span&gt;&lt;span style=&quot;color: rgb(243, 236, 121); font-size: 14px;&quot;&gt;x&lt;/span&gt;&lt;span style=&quot;color: rgb(217, 232, 247); font-size: 14px;&quot;&gt; &lt;/span&gt;&lt;span style=&quot;color: rgb(230, 230, 250); font-size: 14px;&quot;&gt;=&lt;/span&gt;&lt;span style=&quot;color: rgb(217, 232, 247); font-size: 14px;&quot;&gt; &lt;/span&gt;&lt;span style=&quot;color: rgb(243, 236, 121); font-size: 14px;&quot;&gt;x&lt;/span&gt;&lt;span style=&quot;color: rgb(230, 230, 250); font-size: 14px;&quot;&gt;.&lt;/span&gt;&lt;span style=&quot;color: rgb(102, 225, 248); font-size: 14px;&quot;&gt;left&lt;/span&gt;&lt;/p&gt;&lt;/div&gt;&lt;/div&gt;" style="text;whiteSpace=wrap;html=1;fontSize=14;fontColor=#000000;fontStyle=1;rotation=0;" parent="1" vertex="1">
          <mxGeometry x="-90" y="1888" width="130" height="40" as="geometry" />
        </mxCell>
        <mxCell id="caAI1zu-54LZmz0PbXrQ-37" value="&lt;div style=&quot;background-color: rgb(47, 47, 47); padding: 0px 0px 0px 2px; font-size: 14px;&quot;&gt;&lt;div style=&quot;color: rgb(170, 170, 170); background-color: rgb(47, 47, 47); font-family: &amp;quot;Courier New&amp;quot;; font-size: 14px;&quot;&gt;&lt;p style=&quot;background-color: rgb(55, 55, 55); margin: 0px; font-size: 14px;&quot;&gt;&lt;span style=&quot;color: rgb(249, 250, 244); font-size: 14px;&quot;&gt;&lt;/span&gt;&lt;span style=&quot;color: rgb(243, 236, 121); font-size: 14px;&quot;&gt;x&lt;/span&gt;&lt;span style=&quot;color: rgb(217, 232, 247); font-size: 14px;&quot;&gt; &lt;/span&gt;&lt;span style=&quot;color: rgb(230, 230, 250); font-size: 14px;&quot;&gt;=&lt;/span&gt;&lt;span style=&quot;color: rgb(217, 232, 247); font-size: 14px;&quot;&gt; &lt;/span&gt;&lt;span style=&quot;color: rgb(243, 236, 121); font-size: 14px;&quot;&gt;x&lt;/span&gt;&lt;span style=&quot;color: rgb(230, 230, 250); font-size: 14px;&quot;&gt;.&lt;/span&gt;&lt;span style=&quot;color: rgb(102, 225, 248); font-size: 14px;&quot;&gt;righ&lt;/span&gt;&lt;/p&gt;&lt;/div&gt;&lt;/div&gt;" style="text;whiteSpace=wrap;html=1;fontSize=14;fontColor=#000000;fontStyle=1" parent="1" vertex="1">
          <mxGeometry x="31.5" y="2095" width="130" height="40" as="geometry" />
        </mxCell>
        <mxCell id="caAI1zu-54LZmz0PbXrQ-91" value="10" style="ellipse;whiteSpace=wrap;html=1;aspect=fixed;fontSize=34;strokeWidth=1;" parent="1" vertex="1">
          <mxGeometry x="200" y="2068" width="80" height="80" as="geometry" />
        </mxCell>
        <mxCell id="caAI1zu-54LZmz0PbXrQ-93" value="12" style="ellipse;whiteSpace=wrap;html=1;aspect=fixed;fontSize=34;strokeWidth=1;" parent="1" vertex="1">
          <mxGeometry x="80" y="2268" width="80" height="80" as="geometry" />
        </mxCell>
        <mxCell id="caAI1zu-54LZmz0PbXrQ-101" style="edgeStyle=orthogonalEdgeStyle;rounded=0;orthogonalLoop=1;jettySize=auto;html=1;exitX=0;exitY=0.5;exitDx=0;exitDy=0;entryX=1;entryY=0.5;entryDx=0;entryDy=0;" parent="1" source="caAI1zu-54LZmz0PbXrQ-94" target="caAI1zu-54LZmz0PbXrQ-93" edge="1">
          <mxGeometry relative="1" as="geometry" />
        </mxCell>
        <mxCell id="caAI1zu-54LZmz0PbXrQ-94" value="11" style="ellipse;whiteSpace=wrap;html=1;aspect=fixed;fontSize=34;strokeWidth=1;" parent="1" vertex="1">
          <mxGeometry x="320" y="2268" width="80" height="80" as="geometry" />
        </mxCell>
        <mxCell id="caAI1zu-54LZmz0PbXrQ-95" value="" style="endArrow=classic;html=1;rounded=0;entryX=0.5;entryY=0;entryDx=0;entryDy=0;fontSize=34;exitX=0;exitY=1;exitDx=0;exitDy=0;" parent="1" source="caAI1zu-54LZmz0PbXrQ-91" target="caAI1zu-54LZmz0PbXrQ-93" edge="1">
          <mxGeometry width="50" height="50" relative="1" as="geometry">
            <mxPoint x="190" y="2128" as="sourcePoint" />
            <mxPoint x="682.5" y="2873" as="targetPoint" />
          </mxGeometry>
        </mxCell>
        <mxCell id="caAI1zu-54LZmz0PbXrQ-96" value="" style="endArrow=classic;html=1;rounded=0;fontSize=34;entryX=0.5;entryY=0;entryDx=0;entryDy=0;exitX=1;exitY=1;exitDx=0;exitDy=0;" parent="1" source="caAI1zu-54LZmz0PbXrQ-91" target="caAI1zu-54LZmz0PbXrQ-94" edge="1">
          <mxGeometry width="50" height="50" relative="1" as="geometry">
            <mxPoint x="330" y="2128" as="sourcePoint" />
            <mxPoint x="122.5" y="2613" as="targetPoint" />
          </mxGeometry>
        </mxCell>
        <mxCell id="caAI1zu-54LZmz0PbXrQ-97" value="&lt;div style=&quot;background-color: rgb(47, 47, 47); padding: 0px 0px 0px 2px; font-size: 14px;&quot;&gt;&lt;div style=&quot;background-color: rgb(47, 47, 47); font-family: &amp;quot;Courier New&amp;quot;; font-size: 14px;&quot;&gt;&lt;p style=&quot;background-color: rgb(55, 55, 55); margin: 0px; font-size: 14px;&quot;&gt;&lt;span style=&quot;font-size: 14px;&quot;&gt;&lt;/span&gt;&lt;font color=&quot;#ffd966&quot; style=&quot;font-size: 14px;&quot;&gt;x&lt;/font&gt;&lt;span style=&quot;border-color: var(--border-color); font-size: 14px; color: rgb(230, 230, 250);&quot;&gt;.&lt;/span&gt;&lt;span style=&quot;border-color: var(--border-color); font-size: 14px; color: rgb(102, 225, 248);&quot;&gt;val&lt;/span&gt;&lt;span style=&quot;border-color: var(--border-color); font-size: 14px; color: rgb(217, 232, 247);&quot;&gt;&amp;nbsp;&lt;/span&gt;&lt;span style=&quot;border-color: var(--border-color); font-size: 14px; color: rgb(230, 230, 250);&quot;&gt;!=&lt;/span&gt;&lt;span style=&quot;border-color: var(--border-color); font-size: 14px; color: rgb(217, 232, 247);&quot;&gt;&amp;nbsp;&lt;/span&gt;&lt;span style=&quot;border-color: var(--border-color); font-size: 14px; color: rgb(204, 108, 29);&quot;&gt;null&lt;/span&gt;&lt;/p&gt;&lt;/div&gt;&lt;/div&gt;" style="text;whiteSpace=wrap;html=1;fontSize=14;fontColor=#000000;fontStyle=1;rotation=45;" parent="1" vertex="1">
          <mxGeometry x="277.36" y="2201.86" width="154" height="31.16" as="geometry" />
        </mxCell>
        <mxCell id="caAI1zu-54LZmz0PbXrQ-99" value="" style="curved=1;endArrow=classic;html=1;rounded=0;exitX=0.031;exitY=0.328;exitDx=0;exitDy=0;exitPerimeter=0;entryX=0;entryY=0;entryDx=0;entryDy=0;" parent="1" source="caAI1zu-54LZmz0PbXrQ-93" target="caAI1zu-54LZmz0PbXrQ-49" edge="1">
          <mxGeometry width="50" height="50" relative="1" as="geometry">
            <mxPoint x="60" y="2268" as="sourcePoint" />
            <mxPoint x="70" y="1448" as="targetPoint" />
            <Array as="points">
              <mxPoint x="-260" y="2208" />
              <mxPoint x="-360" y="1458" />
            </Array>
          </mxGeometry>
        </mxCell>
        <mxCell id="caAI1zu-54LZmz0PbXrQ-100" value="&lt;div style=&quot;background-color: rgb(47, 47, 47); padding: 0px 0px 0px 2px; font-size: 14px;&quot;&gt;&lt;div style=&quot;background-color: rgb(47, 47, 47); font-family: &amp;quot;Courier New&amp;quot;; font-size: 14px;&quot;&gt;&lt;p style=&quot;background-color: rgb(55, 55, 55); margin: 0px; font-size: 14px;&quot;&gt;&lt;span style=&quot;font-size: 14px;&quot;&gt;&lt;/span&gt;&lt;font color=&quot;#ffffff&quot; style=&quot;font-size: 14px;&quot;&gt;¬&lt;/font&gt;&lt;span style=&quot;color: rgb(249, 250, 244); font-size: 14px;&quot;&gt;(&lt;/span&gt;&lt;font color=&quot;#ffd966&quot; style=&quot;font-size: 14px;&quot;&gt;x&lt;/font&gt;&lt;span style=&quot;border-color: var(--border-color); font-size: 14px; color: rgb(230, 230, 250);&quot;&gt;.&lt;/span&gt;&lt;span style=&quot;border-color: var(--border-color); font-size: 14px; color: rgb(102, 225, 248);&quot;&gt;val&lt;/span&gt;&lt;span style=&quot;border-color: var(--border-color); font-size: 14px; color: rgb(217, 232, 247);&quot;&gt;&amp;nbsp;&lt;/span&gt;&lt;span style=&quot;border-color: var(--border-color); font-size: 14px; color: rgb(230, 230, 250);&quot;&gt;!=&lt;/span&gt;&lt;span style=&quot;border-color: var(--border-color); font-size: 14px; color: rgb(217, 232, 247);&quot;&gt;&amp;nbsp;&lt;/span&gt;&lt;span style=&quot;border-color: var(--border-color); font-size: 14px; color: rgb(204, 108, 29);&quot;&gt;null&lt;/span&gt;&lt;span style=&quot;color: rgb(249, 250, 244); font-size: 14px;&quot;&gt;)&lt;/span&gt;&lt;/p&gt;&lt;/div&gt;&lt;/div&gt;" style="text;whiteSpace=wrap;html=1;fontSize=14;fontColor=#000000;fontStyle=1;rotation=-45;" parent="1" vertex="1">
          <mxGeometry x="78" y="2171.7" width="154" height="31.16" as="geometry" />
        </mxCell>
        <mxCell id="caAI1zu-54LZmz0PbXrQ-40" value="&lt;div style=&quot;background-color: rgb(47, 47, 47); padding: 0px 0px 0px 2px; font-size: 14px;&quot;&gt;&lt;div style=&quot;color: rgb(170, 170, 170); background-color: rgb(47, 47, 47); font-family: &amp;quot;Courier New&amp;quot;; font-size: 14px;&quot;&gt;&lt;p style=&quot;background-color: rgb(55, 55, 55); margin: 0px; font-size: 14px;&quot;&gt;&lt;span style=&quot;color: rgb(217, 232, 247); font-size: 14px;&quot;&gt;&lt;/span&gt;&lt;span style=&quot;color: rgb(243, 236, 121); font-size: 14px;&quot;&gt;length&lt;/span&gt;&lt;span style=&quot;color: rgb(217, 232, 247); font-size: 14px;&quot;&gt; &lt;/span&gt;&lt;span style=&quot;color: rgb(230, 230, 250); font-size: 14px;&quot;&gt;=&lt;/span&gt;&lt;span style=&quot;color: rgb(217, 232, 247); font-size: 14px;&quot;&gt; &lt;/span&gt;&lt;span style=&quot;color: rgb(243, 236, 121); font-size: 14px;&quot;&gt;i&lt;/span&gt;&lt;span style=&quot;color: rgb(230, 230, 250); font-size: 14px;&quot;&gt;;&lt;/span&gt;&lt;/p&gt;&lt;/div&gt;&lt;/div&gt;" style="text;whiteSpace=wrap;html=1;fontSize=14;fontColor=#000000;fontStyle=1" parent="1" vertex="1">
          <mxGeometry x="392" y="2295" width="114" height="40" as="geometry" />
        </mxCell>
        <mxCell id="caAI1zu-54LZmz0PbXrQ-102" value="&lt;div style=&quot;background-color: rgb(47, 47, 47); padding: 0px 0px 0px 2px; font-size: 14px;&quot;&gt;&lt;div style=&quot;color: rgb(170, 170, 170); background-color: rgb(47, 47, 47); font-family: &amp;quot;Courier New&amp;quot;; font-size: 14px;&quot;&gt;&lt;p style=&quot;margin: 0px; font-size: 14px;&quot;&gt;&lt;span style=&quot;font-size: 14px; color: rgb(243, 236, 121);&quot;&gt;x&lt;/span&gt;&lt;span style=&quot;font-size: 14px; color: rgb(217, 232, 247);&quot;&gt; &lt;/span&gt;&lt;span style=&quot;font-size: 14px; color: rgb(230, 230, 250);&quot;&gt;=&lt;/span&gt;&lt;span style=&quot;font-size: 14px; color: rgb(217, 232, 247);&quot;&gt; &lt;/span&gt;&lt;span style=&quot;font-size: 14px; color: rgb(243, 236, 121);&quot;&gt;x&lt;/span&gt;&lt;span style=&quot;font-size: 14px; color: rgb(230, 230, 250);&quot;&gt;.&lt;/span&gt;&lt;span style=&quot;font-size: 14px; color: rgb(102, 225, 248);&quot;&gt;mid&lt;/span&gt;&lt;span style=&quot;font-size: 14px; color: rgb(230, 230, 250);&quot;&gt;;&lt;/span&gt;&lt;br style=&quot;font-size: 14px;&quot;&gt;&lt;span style=&quot;color: rgb(217, 232, 247); font-size: 14px;&quot;&gt;&lt;/span&gt;&lt;/p&gt;&lt;/div&gt;&lt;/div&gt;" style="text;whiteSpace=wrap;html=1;fontSize=14;fontColor=#000000;fontStyle=1" parent="1" vertex="1">
          <mxGeometry y="2312" width="130" height="23" as="geometry" />
        </mxCell>
        <mxCell id="caAI1zu-54LZmz0PbXrQ-38" value="&lt;div style=&quot;background-color:#2f2f2f;padding:0px 0px 0px 2px;&quot;&gt;&lt;div style=&quot;color: rgb(170, 170, 170); background-color: rgb(47, 47, 47); font-family: &amp;quot;Courier New&amp;quot;; font-size: 12pt;&quot;&gt;&lt;p style=&quot;margin:0;&quot;&gt;&lt;span style=&quot;color:#d9e8f7;&quot;&gt;&lt;/span&gt;&lt;span style=&quot;color:#f3ec79;&quot;&gt;i&lt;/span&gt;&lt;span style=&quot;color:#e6e6fa;&quot;&gt;++;&lt;/span&gt;&lt;/p&gt;&lt;/div&gt;&lt;/div&gt;" style="text;whiteSpace=wrap;html=1;fontSize=13;fontColor=#000000;fontStyle=1" parent="1" vertex="1">
          <mxGeometry x="275" y="2092" width="45" height="22" as="geometry" />
        </mxCell>
        <mxCell id="caAI1zu-54LZmz0PbXrQ-30" value="&lt;div style=&quot;background-color: rgb(47, 47, 47); padding: 0px 0px 0px 2px; font-size: 14px;&quot;&gt;&lt;div style=&quot;color: rgb(170, 170, 170); font-family: &amp;quot;Courier New&amp;quot;; font-size: 14px;&quot;&gt;&lt;p style=&quot;background-color: rgb(55, 55, 55); margin: 0px; font-size: 14px;&quot;&gt;&lt;span style=&quot;color: rgb(204, 108, 29); font-size: 14px;&quot;&gt;char&lt;/span&gt;&lt;span style=&quot;color: rgb(217, 232, 247); font-size: 14px;&quot;&gt; &lt;/span&gt;&lt;span style=&quot;color: rgb(242, 242, 0); font-size: 14px;&quot;&gt;c&lt;/span&gt;&lt;span style=&quot;color: rgb(217, 232, 247); font-size: 14px;&quot;&gt; &lt;/span&gt;&lt;span style=&quot;color: rgb(230, 230, 250); font-size: 14px;&quot;&gt;=&lt;/span&gt;&lt;span style=&quot;color: rgb(217, 232, 247); font-size: 14px;&quot;&gt; &lt;/span&gt;&lt;span style=&quot;color: rgb(121, 171, 255); font-size: 14px;&quot;&gt;query&lt;/span&gt;&lt;span style=&quot;color: rgb(230, 230, 250); font-size: 14px;&quot;&gt;.&lt;/span&gt;&lt;span style=&quot;color: rgb(167, 236, 33); font-size: 14px;&quot;&gt;charAt&lt;/span&gt;&lt;span style=&quot;color: rgb(249, 250, 244); font-size: 14px;&quot;&gt;(&lt;/span&gt;&lt;span style=&quot;color: rgb(243, 236, 121); font-size: 14px;&quot;&gt;i&lt;/span&gt;&lt;span style=&quot;color: rgb(249, 250, 244); font-size: 14px;&quot;&gt;)&lt;/span&gt;&lt;span style=&quot;color: rgb(230, 230, 250); font-size: 14px;&quot;&gt;;&lt;/span&gt;&lt;/p&gt;&lt;/div&gt;&lt;/div&gt;" style="text;html=1;align=center;verticalAlign=middle;resizable=0;points=[];autosize=1;strokeColor=none;fillColor=none;fontSize=14;fontColor=#990099;fontStyle=1;rotation=0;" parent="1" vertex="1">
          <mxGeometry x="20" y="1692" width="240" height="30" as="geometry" />
        </mxCell>
        <mxCell id="caAI1zu-54LZmz0PbXrQ-104" value="&lt;div style=&quot;background-color: rgb(47, 47, 47); padding: 0px 0px 0px 2px; font-size: 13px;&quot;&gt;&lt;div style=&quot;color: rgb(170, 170, 170); font-family: &amp;quot;Courier New&amp;quot;; font-size: 13px;&quot;&gt;&lt;p style=&quot;background-color: rgb(55, 55, 55); margin: 0px; font-size: 13px;&quot;&gt;&lt;span style=&quot;color: rgb(243, 236, 121); font-size: 13px;&quot;&gt;x&lt;/span&gt;&lt;span style=&quot;color: rgb(217, 232, 247); font-size: 13px;&quot;&gt; &lt;/span&gt;&lt;span style=&quot;color: rgb(230, 230, 250); font-size: 13px;&quot;&gt;!=&lt;/span&gt;&lt;span style=&quot;color: rgb(217, 232, 247); font-size: 13px;&quot;&gt; &lt;/span&gt;&lt;span style=&quot;color: rgb(204, 108, 29); font-size: 13px;&quot;&gt;null&lt;/span&gt;&lt;span style=&quot;color: rgb(217, 232, 247); font-size: 13px;&quot;&gt; &lt;/span&gt;&lt;span style=&quot;color: rgb(230, 230, 250); font-size: 13px;&quot;&gt;&amp;amp;&amp;amp;&lt;/span&gt;&lt;span style=&quot;color: rgb(217, 232, 247); font-size: 13px;&quot;&gt;&amp;nbsp;&lt;/span&gt;&lt;/p&gt;&lt;p style=&quot;background-color: rgb(55, 55, 55); margin: 0px; font-size: 13px;&quot;&gt;&lt;span style=&quot;color: rgb(243, 236, 121); font-size: 13px;&quot;&gt;i&lt;/span&gt;&lt;span style=&quot;color: rgb(217, 232, 247); font-size: 13px;&quot;&gt; &lt;/span&gt;&lt;span style=&quot;color: rgb(230, 230, 250); font-size: 13px;&quot;&gt;&amp;lt;&lt;/span&gt;&lt;span style=&quot;color: rgb(217, 232, 247); font-size: 13px;&quot;&gt; &lt;/span&gt;&lt;span style=&quot;color: rgb(121, 171, 255); font-size: 13px;&quot;&gt;query&lt;/span&gt;&lt;span style=&quot;color: rgb(230, 230, 250); font-size: 13px;&quot;&gt;.&lt;/span&gt;&lt;span style=&quot;color: rgb(167, 236, 33); font-size: 13px;&quot;&gt;length&lt;/span&gt;&lt;span style=&quot;color: rgb(249, 250, 244); font-size: 13px;&quot;&gt;()&lt;/span&gt;&lt;/p&gt;&lt;/div&gt;&lt;/div&gt;" style="text;html=1;align=center;verticalAlign=middle;resizable=0;points=[];autosize=1;strokeColor=none;fillColor=none;fontSize=13;fontColor=#990099;fontStyle=1;rotation=-45;" parent="1" vertex="1">
          <mxGeometry x="-67" y="1575" width="170" height="40" as="geometry" />
        </mxCell>
        <mxCell id="caAI1zu-54LZmz0PbXrQ-27" value="&lt;div style=&quot;background-color: rgb(47, 47, 47); padding: 0px 0px 0px 2px; font-size: 14px;&quot;&gt;&lt;div style=&quot;color: rgb(170, 170, 170); font-family: &amp;quot;Courier New&amp;quot;; font-size: 14px;&quot;&gt;&lt;div style=&quot;padding: 0px 0px 0px 2px; font-size: 14px;&quot;&gt;&lt;div style=&quot;font-size: 14px;&quot;&gt;&lt;p style=&quot;background-color: rgb(55, 55, 55); margin: 0px; font-size: 14px;&quot;&gt;&lt;span style=&quot;border-color: var(--border-color); color: rgb(204, 108, 29); font-size: 14px;&quot;&gt;return null&lt;/span&gt;&lt;br style=&quot;font-size: 14px;&quot;&gt;&lt;/p&gt;&lt;/div&gt;&lt;/div&gt;&lt;/div&gt;&lt;/div&gt;" style="text;html=1;align=center;verticalAlign=middle;resizable=0;points=[];autosize=1;strokeColor=none;fillColor=none;fontSize=14;fontColor=#990099;fontStyle=1;rotation=0;" parent="1" vertex="1">
          <mxGeometry x="-260" y="1345" width="120" height="30" as="geometry" />
        </mxCell>
        <mxCell id="8Czv-CQ8JKGNoGWyx-Vr-3" style="edgeStyle=orthogonalEdgeStyle;rounded=0;orthogonalLoop=1;jettySize=auto;html=1;exitX=0.5;exitY=1;exitDx=0;exitDy=0;" edge="1" parent="1" source="8Czv-CQ8JKGNoGWyx-Vr-1" target="caAI1zu-54LZmz0PbXrQ-49">
          <mxGeometry relative="1" as="geometry" />
        </mxCell>
        <mxCell id="8Czv-CQ8JKGNoGWyx-Vr-1" value="4" style="ellipse;whiteSpace=wrap;html=1;aspect=fixed;fontSize=34;" vertex="1" parent="1">
          <mxGeometry x="79" y="1321.5" width="80" height="80" as="geometry" />
        </mxCell>
        <mxCell id="8Czv-CQ8JKGNoGWyx-Vr-2" value="&lt;div style=&quot;background-color: rgb(47, 47, 47); padding: 0px 0px 0px 2px; font-size: 12px;&quot;&gt;&lt;div style=&quot;color: rgb(170, 170, 170); font-family: &amp;quot;Courier New&amp;quot;; font-size: 12px;&quot;&gt;&lt;div style=&quot;padding: 0px 0px 0px 2px; font-size: 12px;&quot;&gt;&lt;div style=&quot;font-size: 12px;&quot;&gt;&lt;div style=&quot;padding: 0px 0px 0px 2px; font-size: 12px;&quot;&gt;&lt;div style=&quot;font-size: 12px;&quot;&gt;&lt;p style=&quot;margin: 0px; font-size: 12px;&quot;&gt;&lt;span style=&quot;color: rgb(204, 108, 29); font-size: 12px;&quot;&gt;int&lt;/span&gt;&lt;span style=&quot;color: rgb(217, 232, 247); font-size: 12px;&quot;&gt; &lt;/span&gt;&lt;span style=&quot;color: rgb(242, 242, 0); font-size: 12px;&quot;&gt;length&lt;/span&gt;&lt;span style=&quot;color: rgb(217, 232, 247); font-size: 12px;&quot;&gt; &lt;/span&gt;&lt;span style=&quot;color: rgb(230, 230, 250); font-size: 12px;&quot;&gt;=&lt;/span&gt;&lt;span style=&quot;color: rgb(217, 232, 247); font-size: 12px;&quot;&gt; &lt;/span&gt;&lt;span style=&quot;color: rgb(104, 151, 187); font-size: 12px;&quot;&gt;0&lt;/span&gt;&lt;span style=&quot;color: rgb(230, 230, 250); font-size: 12px;&quot;&gt;;&lt;/span&gt;&lt;/p&gt;&lt;p style=&quot;margin: 0px; font-size: 12px;&quot;&gt;&lt;span style=&quot;color: rgb(217, 232, 247); font-size: 12px;&quot;&gt;        &lt;/span&gt;&lt;span style=&quot;color: rgb(18, 144, 195); font-size: 12px;&quot;&gt;Node&lt;/span&gt;&lt;span style=&quot;color: rgb(230, 230, 250); font-size: 12px;&quot;&gt;&amp;lt;&lt;/span&gt;&lt;span style=&quot;color: rgb(191, 164, 164); font-size: 12px;&quot;&gt;T&lt;/span&gt;&lt;span style=&quot;color: rgb(230, 230, 250); font-size: 12px;&quot;&gt;&amp;gt;&lt;/span&gt;&lt;span style=&quot;color: rgb(217, 232, 247); font-size: 12px;&quot;&gt; &lt;/span&gt;&lt;span style=&quot;color: rgb(242, 242, 0); font-size: 12px;&quot;&gt;x&lt;/span&gt;&lt;span style=&quot;color: rgb(217, 232, 247); font-size: 12px;&quot;&gt; &lt;/span&gt;&lt;span style=&quot;color: rgb(230, 230, 250); font-size: 12px;&quot;&gt;=&lt;/span&gt;&lt;span style=&quot;color: rgb(217, 232, 247); font-size: 12px;&quot;&gt; &lt;/span&gt;&lt;span style=&quot;color: rgb(102, 225, 248); font-size: 12px;&quot;&gt;root&lt;/span&gt;&lt;span style=&quot;color: rgb(230, 230, 250); font-size: 12px;&quot;&gt;;&lt;/span&gt;&lt;/p&gt;&lt;p style=&quot;margin: 0px; font-size: 12px;&quot;&gt;&lt;span style=&quot;color: rgb(217, 232, 247); font-size: 12px;&quot;&gt;        &lt;/span&gt;&lt;span style=&quot;color: rgb(204, 108, 29); font-size: 12px;&quot;&gt;int&lt;/span&gt;&lt;span style=&quot;color: rgb(217, 232, 247); font-size: 12px;&quot;&gt; &lt;/span&gt;&lt;span style=&quot;color: rgb(242, 242, 0); font-size: 12px;&quot;&gt;i&lt;/span&gt;&lt;span style=&quot;color: rgb(217, 232, 247); font-size: 12px;&quot;&gt; &lt;/span&gt;&lt;span style=&quot;color: rgb(230, 230, 250); font-size: 12px;&quot;&gt;=&lt;/span&gt;&lt;span style=&quot;color: rgb(217, 232, 247); font-size: 12px;&quot;&gt; &lt;/span&gt;&lt;span style=&quot;color: rgb(104, 151, 187); font-size: 12px;&quot;&gt;0&lt;/span&gt;&lt;span style=&quot;color: rgb(230, 230, 250); font-size: 12px;&quot;&gt;;&lt;/span&gt;&lt;/p&gt;&lt;/div&gt;&lt;/div&gt;&lt;/div&gt;&lt;/div&gt;&lt;/div&gt;&lt;/div&gt;" style="text;html=1;align=center;verticalAlign=middle;resizable=0;points=[];autosize=1;strokeColor=none;fillColor=none;fontSize=12;fontColor=#990099;fontStyle=1;rotation=0;" vertex="1" parent="1">
          <mxGeometry x="141" y="1318.5" width="150" height="60" as="geometry" />
        </mxCell>
      </root>
    </mxGraphModel>
  </diagram>
</mxfile>
